<?xml version="1.0" encoding="UTF-8"?>
<svg version="1.1" xmlns="http://www.w3.org/2000/svg" width="612" height="408">
<path d="M0 0 C0.64604187 -0.00511093 1.29208374 -0.01022186 1.95770264 -0.01548767 C4.0872125 -0.02935514 6.21639769 -0.02842912 8.34594727 -0.02612305 C9.83040995 -0.03001155 11.31487153 -0.03434654 12.79933167 -0.03910828 C15.90873829 -0.04656434 19.01803136 -0.04628369 22.12744141 -0.04101562 C26.10657498 -0.03522166 30.08524297 -0.05215277 34.06429958 -0.0753603 C37.12956955 -0.09011219 40.19472776 -0.09096738 43.26002693 -0.08785057 C44.72680648 -0.08836305 46.19359241 -0.09358707 47.66033745 -0.10366249 C49.71396775 -0.11603845 51.76669598 -0.10922947 53.8203125 -0.09765625 C54.98739243 -0.09828568 56.15447235 -0.0989151 57.35691833 -0.0995636 C62.32268891 0.49643969 64.59077929 2.2082315 67.75401306 6.02392578 C69.73036791 9.75733452 69.9868021 12.08234506 70.00830078 16.28637695 C70.02122414 17.29735947 70.02122414 17.29735947 70.03440857 18.32876587 C70.05697488 20.54029556 70.0503486 22.75054851 70.04125977 24.9621582 C70.0464992 26.5086301 70.05277685 28.0550988 70.06004333 29.6015625 C70.07042993 32.83617231 70.06591101 36.07034171 70.05126953 39.30493164 C70.034075 43.44118313 70.05759252 47.57604629 70.09275913 51.71214294 C70.11476366 54.90361661 70.11328459 58.09475953 70.10499382 61.2862854 C70.10417613 62.81085738 70.11100472 64.33545409 70.12576485 65.85995483 C70.14327177 67.99514101 70.1286239 70.12785095 70.10595703 72.26293945 C70.10499527 73.47506104 70.10403351 74.68718262 70.1030426 75.93603516 C69.28023957 80.30896877 67.64888811 82.19721226 64.47485352 85.2746582 C60.23597239 87.96940391 57.01409192 88.65428487 52.02978516 88.67871094 C50.77150406 88.69139511 49.51322296 88.70407928 48.21681213 88.71714783 C46.85620966 88.7150961 45.49560832 88.71210784 44.13500977 88.70825195 C42.72545623 88.71281851 41.31590492 88.71812549 39.90635681 88.72413635 C36.95847504 88.73304862 34.01086445 88.73066622 31.06298828 88.72070312 C27.29916871 88.70921722 23.5362879 88.72942736 19.77259159 88.75862026 C16.8633385 88.77703266 13.9543083 88.77667987 11.04501152 88.77098274 C9.65803142 88.77083013 8.27103563 88.77682438 6.8841114 88.78927422 C-7.05986297 88.89682033 -7.05986297 88.89682033 -12.52514648 84.2746582 C-17.99608652 77.87148779 -17.14446405 70.27199546 -17.12670898 62.21606445 C-17.13449524 60.74307274 -17.14316711 59.27008546 -17.15267944 57.79710388 C-17.16755405 54.7181031 -17.16705814 51.63956118 -17.15649414 48.56054688 C-17.14490519 44.63168862 -17.17878193 40.70471637 -17.22518349 36.77616978 C-17.25477172 33.73643683 -17.25638675 30.69715242 -17.25016403 27.65730095 C-17.25118466 26.20971883 -17.26155105 24.76210967 -17.28178787 23.31466866 C-17.37629934 15.61069548 -17.39913113 9.68979574 -12.20272827 3.68589783 C-8.24085653 0.35303475 -5.14342728 0.02031904 0 0 Z M-8.52514648 9.2746582 C-9.42722772 11.9809019 -9.64742248 13.51316806 -9.63867188 16.28710938 C-9.63859634 17.08771286 -9.63852081 17.88831635 -9.63844299 18.71318054 C-9.63328171 19.57264786 -9.62812042 20.43211517 -9.62280273 21.31762695 C-9.62138779 22.20122391 -9.61997284 23.08482086 -9.61851501 23.99519348 C-9.61291717 26.81754948 -9.6003651 29.63982618 -9.58764648 32.4621582 C-9.5826312 34.37556852 -9.57806835 36.28898007 -9.57397461 38.20239258 C-9.56294845 42.89317835 -9.54568532 47.58390483 -9.52514648 52.2746582 C-3.61271539 49.42340388 1.1613876 45.0508495 5.28735352 39.9621582 C7.47485352 37.2746582 7.47485352 37.2746582 10.47485352 35.2746582 C14.89068826 35.50111127 16.49830543 37.19889185 19.47485352 40.2746582 C20.46485352 40.2746582 21.45485352 40.2746582 22.47485352 40.2746582 C23.13485352 41.5946582 23.79485352 42.9146582 24.47485352 44.2746582 C31.25861711 38.72430617 37.33008319 32.51023794 43.47485352 26.2746582 C40.63236811 24.70192252 40.63236811 24.70192252 37.47485352 24.2746582 C37.96985352 22.7896582 37.96985352 22.7896582 38.47485352 21.2746582 C39.43584961 21.09290039 39.43584961 21.09290039 40.41625977 20.9074707 C45.52414284 19.91786593 50.4973562 18.78954869 55.47485352 17.2746582 C55.33047852 18.5534082 55.18610352 19.8321582 55.03735352 21.1496582 C54.47670706 26.18746705 53.96983821 31.23002699 53.47485352 36.2746582 C51.49485352 34.6246582 49.51485352 32.9746582 47.47485352 31.2746582 C46.60534058 32.19130249 46.60534058 32.19130249 45.71826172 33.12646484 C43.55915326 35.3878639 41.38680435 37.63541934 39.20458984 39.87451172 C38.26319053 40.84607473 37.32724751 41.82295582 36.39697266 42.80517578 C35.05851833 44.21644203 33.69855595 45.60721136 32.33813477 46.99731445 C31.52642822 47.84044189 30.71472168 48.68356934 29.87841797 49.55224609 C27.47485352 51.2746582 27.47485352 51.2746582 24.82446289 51.14379883 C21.96792111 50.08713956 20.01336211 48.64209063 17.66235352 46.7121582 C16.47706055 45.75116211 16.47706055 45.75116211 15.26782227 44.77075195 C14.67614258 44.27704102 14.08446289 43.78333008 13.47485352 43.2746582 C7.96221034 46.39810597 3.71234205 50.40781838 -0.83764648 54.7746582 C-1.67360352 55.5274707 -2.50956055 56.2802832 -3.37084961 57.0559082 C-7.66832379 61.20954856 -10.07384785 63.98582195 -10.19311523 70.1184082 C-9.9772209 73.59541007 -9.55390647 76.3965864 -7.52514648 79.2746582 C-3.80047123 81.12065581 -0.75088197 81.53069634 3.37915039 81.54931641 C4.54385864 81.55884842 5.70856689 81.56838043 6.90856934 81.57820129 C8.78216125 81.57683418 8.78216125 81.57683418 10.69360352 81.57543945 C11.98423706 81.57972458 13.27487061 81.5840097 14.60461426 81.58842468 C17.3314221 81.59586943 20.05810041 81.59560794 22.78491211 81.59033203 C26.27192184 81.58453307 29.75840114 81.60148641 33.24532318 81.6246767 C36.582272 81.64298304 39.91910477 81.63922836 43.25610352 81.63793945 C45.12969543 81.65175407 45.12969543 81.65175407 47.0411377 81.66584778 C48.20584595 81.65961899 49.3705542 81.6533902 50.57055664 81.64697266 C51.59250122 81.64760208 52.6144458 81.64823151 53.6673584 81.64888 C56.93777794 81.21295323 58.82475939 80.20981758 61.47485352 78.2746582 C62.84538089 75.53360346 62.62482603 73.32010542 62.65185547 70.25195312 C62.6646907 68.98691452 62.67752594 67.72187592 62.69075012 66.41850281 C62.69891774 65.03071483 62.70636143 63.64292243 62.71313477 62.25512695 C62.71721029 61.55711786 62.72128582 60.85910877 62.72548485 60.13994789 C62.74634573 56.4448641 62.76064685 52.74981744 62.77001953 49.0546875 C62.78107923 45.24132215 62.81547304 41.42854111 62.85519123 37.61538219 C62.88136042 34.68051584 62.88971161 31.74578858 62.89330101 28.81081581 C62.89816692 27.40540944 62.90978122 26.00000929 62.928339 24.59471703 C62.95273003 22.625137 62.94934567 20.65527273 62.94482422 18.68554688 C62.95362358 17.00582039 62.95362358 17.00582039 62.96260071 15.29216003 C62.36112032 11.57103525 61.1160558 9.92037968 58.47485352 7.2746582 C55.39269534 6.24727214 53.24354778 6.13592392 50.01293945 6.11352539 C48.89457703 6.10391785 47.7762146 6.0943103 46.6239624 6.08441162 C45.41460022 6.08016174 44.20523804 6.07591187 42.95922852 6.0715332 C41.09273651 6.06298309 41.09273651 6.06298309 39.1885376 6.05426025 C36.55233097 6.04480586 33.9162383 6.03791152 31.2800293 6.03442383 C28.58360265 6.03003768 25.88749573 6.01614137 23.19116211 5.9934082 C19.30125218 5.96291032 15.41174477 5.95237115 11.52172852 5.9465332 C10.32046326 5.9341864 9.119198 5.9218396 7.88153076 5.90911865 C1.70408046 5.92551088 -3.16909711 6.02447111 -8.52514648 9.2746582 Z " fill="#D8D9DB" transform="translate(150.525146484375,155.725341796875)"/>
<path d="M0 0 C6.58358323 -0.07621035 13.16705222 -0.12866715 19.75097656 -0.16479492 C21.98962658 -0.17985964 24.22824719 -0.20031533 26.46679688 -0.22631836 C29.68887602 -0.26280283 32.91056411 -0.27974983 36.1328125 -0.29296875 C37.62846237 -0.31619453 37.62846237 -0.31619453 39.15432739 -0.33988953 C44.52811634 -0.34118419 48.37916529 -0.07484946 53 3 C55.38612004 5.86334405 55.9572247 7.67001914 56.4375 11.375 C55.89343291 15.88298442 54.36462803 18.15747945 52 22 C52 25.17894643 52.38592159 25.96764477 54 28.5625 C56 32 56 32 56 34 C56.66 34 57.32 34 58 34 C58 34.66 58 35.32 58 36 C54.60041653 36.35033875 51.38768346 36.51667499 48 36 C45.35314593 33.15463188 44.28061634 30.84184903 43.0625 27.1875 C42.711875 26.465625 42.36125 25.74375 42 25 C40.35 24.67 38.7 24.34 37 24 C37.495 29.94 37.495 29.94 38 36 C35.6739143 36.38063221 33.33944736 36.71269945 31 37 C29.08780415 35.08780415 29.75564702 31.66354496 29.68359375 29.12109375 C29.66281265 28.4344313 29.64203156 27.74776886 29.62062073 27.04029846 C29.55505857 24.83947065 29.49620985 22.63852025 29.4375 20.4375 C29.39432108 18.94855486 29.350707 17.45962227 29.30664062 15.97070312 C29.1993707 12.31393447 29.09812228 8.65702682 29 5 C28.67 5.66 28.34 6.32 28 7 C24.37 7 20.74 7 17 7 C17 16.57 17 26.14 17 36 C13.535 36.495 13.535 36.495 10 37 C9 36 9 36 8.88647461 33.22436523 C8.89171143 32.01466064 8.89694824 30.80495605 8.90234375 29.55859375 C8.90556641 28.25341797 8.90878906 26.94824219 8.91210938 25.60351562 C8.92046599 24.2148431 8.92893095 22.82617123 8.9375 21.4375 C8.94251334 20.04492344 8.94707653 18.65234519 8.95117188 17.25976562 C8.96300566 13.8398013 8.9794912 10.41992156 9 7 C6.03 7 3.06 7 0 7 C0 4.69 0 2.38 0 0 Z M37 7 C37 9.97 37 12.94 37 16 C41.50901363 16.17957899 41.50901363 16.17957899 46 16 C46.66 15.34 47.32 14.68 48 14 C47.67028521 10.70285207 47.3773161 9.3773161 45 7 C42.31160615 6.73008094 39.70858064 6.91262643 37 7 Z " fill="#EBEBEC" transform="translate(344,178)"/>
<path d="M0 0 C3.5 0.125 3.5 0.125 4.5 1.125 C4.73363881 2.97391946 4.91303635 4.82988031 5.0625 6.6875 C5.14628906 7.69941406 5.23007812 8.71132812 5.31640625 9.75390625 C5.37699219 10.53636719 5.43757813 11.31882813 5.5 12.125 C6.428125 10.64 6.428125 10.64 7.375 9.125 C8.07625 8.135 8.7775 7.145 9.5 6.125 C10.16 6.125 10.82 6.125 11.5 6.125 C11.83 4.805 12.16 3.485 12.5 2.125 C13.16 2.125 13.82 2.125 14.5 2.125 C14.5 1.465 14.5 0.805 14.5 0.125 C17.14 0.125 19.78 0.125 22.5 0.125 C22.83 1.115 23.16 2.105 23.5 3.125 C22.84 3.125 22.18 3.125 21.5 3.125 C21.23574219 3.70378906 20.97148437 4.28257812 20.69921875 4.87890625 C19.06858648 7.93302206 16.87855333 10.39569714 14.64453125 13.02734375 C13.29459862 15.07974936 13.29459862 15.07974936 13.578125 17.53515625 C14.71614317 20.73221578 16.35770393 22.94721555 18.4375 25.625 C21.08190472 29.04208922 23.08305506 32.02995495 24.5 36.125 C17.75 37.25 17.75 37.25 15.5 36.125 C15.5 35.465 15.5 34.805 15.5 34.125 C14.84 34.125 14.18 34.125 13.5 34.125 C11.9921875 32.2265625 11.9921875 32.2265625 10.375 29.75 C9.83617187 28.93789062 9.29734375 28.12578125 8.7421875 27.2890625 C7.5 25.125 7.5 25.125 7.5 23.125 C6.84 23.125 6.18 23.125 5.5 23.125 C5.17 27.415 4.84 31.705 4.5 36.125 C-1.125 37.25 -1.125 37.25 -4.5 35.125 C-4.69904662 31.14632438 -4.88211694 27.16706199 -5.0625 23.1875 C-5.11857422 22.07052734 -5.17464844 20.95355469 -5.23242188 19.80273438 C-5.51240056 13.43788564 -5.49219219 7.42640605 -4.5 1.125 C-3.5 0.125 -3.5 0.125 0 0 Z " fill="#E4E4E6" transform="translate(470.5,177.875)"/>
<path d="M0 0 C2.64 0 5.28 0 8 0 C8.02505615 0.81267334 8.0501123 1.62534668 8.07592773 2.46264648 C8.19149118 6.12110752 8.31439584 9.77928528 8.4375 13.4375 C8.47681641 14.71689453 8.51613281 15.99628906 8.55664062 17.31445312 C8.61948242 19.13686523 8.61948242 19.13686523 8.68359375 20.99609375 C8.72025146 22.12200928 8.75690918 23.2479248 8.79467773 24.40795898 C8.71218045 26.92853441 8.71218045 26.92853441 10 28 C13.5 28.16666667 13.5 28.16666667 17 28 C18.80394875 26.19605125 18.23705789 23.43322201 18.31640625 20.99609375 C18.35830078 19.78115234 18.40019531 18.56621094 18.44335938 17.31445312 C18.48267578 16.03505859 18.52199219 14.75566406 18.5625 13.4375 C18.60568359 12.15423828 18.64886719 10.87097656 18.69335938 9.54882812 C18.799848 6.36600147 18.90185962 3.18309326 19 0 C21.64 0 24.28 0 27 0 C27.0744389 4.0384057 27.12873729 8.07654293 27.16479492 12.11547852 C27.17983432 13.48794517 27.20027133 14.86036414 27.22631836 16.23266602 C27.26291221 18.21088656 27.27816698 20.18946514 27.29296875 22.16796875 C27.3086792 23.35672607 27.32438965 24.5454834 27.34057617 25.77026367 C26.8698634 30.23410547 25.29417131 32.82715725 22 35.8125 C17.35682629 37.65042293 12.92329074 37.66413893 8 37 C4.08924075 35.01031547 2.42310902 33.63466354 0 30 C-0.22705078 26.90551758 -0.22705078 26.90551758 -0.1953125 23.14453125 C-0.1924826 22.48289474 -0.18965271 21.82125824 -0.18673706 21.13957214 C-0.17555918 19.03036263 -0.15045981 16.92158075 -0.125 14.8125 C-0.11496707 13.38086552 -0.10584176 11.94922436 -0.09765625 10.51757812 C-0.07562795 7.01158023 -0.04111485 3.50583187 0 0 Z " fill="#DBDCDE" transform="translate(251,178)"/>
<path d="M0 0 C1.23556641 0.01740234 1.23556641 0.01740234 2.49609375 0.03515625 C3.32238281 0.04417969 4.14867187 0.05320313 5 0.0625 C5.63808594 0.07410156 6.27617187 0.08570313 6.93359375 0.09765625 C8.53194955 4.71960965 10.11641615 9.34600449 11.68823242 13.97705078 C12.22480791 15.55158932 12.76514735 17.12485041 13.30932617 18.69677734 C14.09117322 20.95735064 14.85933986 23.22218219 15.625 25.48828125 C15.87077286 26.18947083 16.11654572 26.8906604 16.36976624 27.61309814 C18.38678923 33.65932637 18.38678923 33.65932637 16.93359375 37.09765625 C14.95359375 37.09765625 12.97359375 37.09765625 10.93359375 37.09765625 C9.47296525 34.45026709 8.93359375 33.20317291 8.93359375 30.09765625 C4.64359375 30.09765625 0.35359375 30.09765625 -4.06640625 30.09765625 C-4.39640625 32.07765625 -4.72640625 34.05765625 -5.06640625 36.09765625 C-10.81640625 37.22265625 -10.81640625 37.22265625 -13.06640625 36.09765625 C-12.11302085 30.87432135 -11.13298008 26.00576911 -9.06640625 21.09765625 C-8.60803561 19.23143293 -8.1506476 17.36494812 -7.703125 15.49609375 C-3.63494499 0.17178379 -3.63494499 0.17178379 0 0 Z M1.93359375 10.09765625 C1.43022608 11.72161622 0.93100399 13.34686166 0.43359375 14.97265625 C0.15515625 15.87757813 -0.12328125 16.7825 -0.41015625 17.71484375 C-1.15491419 20.00710272 -1.15491419 20.00710272 -1.06640625 22.09765625 C1.24359375 22.09765625 3.55359375 22.09765625 5.93359375 22.09765625 C4.94359375 18.13765625 3.95359375 14.17765625 2.93359375 10.09765625 C2.60359375 10.09765625 2.27359375 10.09765625 1.93359375 10.09765625 Z " fill="#E2E3E5" transform="translate(416.06640625,177.90234375)"/>
<path d="M0 0 C0.92941406 -0.00515625 1.85882813 -0.0103125 2.81640625 -0.015625 C5.5555881 0.2619672 7.13656131 0.76439394 9.4375 2.25 C12.18738975 5.78557254 14.05054863 8.73556736 14.4375 13.25 C13.4375 14.25 13.4375 14.25 11.58984375 14.34765625 C9.5390625 14.31510417 7.48828125 14.28255208 5.4375 14.25 C4.4475 12.27 3.4575 10.29 2.4375 8.25 C0.1275 8.58 -2.1825 8.91 -4.5625 9.25 C-5.68300151 12.61150452 -5.69546652 15.21286726 -5.6875 18.75 C-5.69007813 19.8946875 -5.69265625 21.039375 -5.6953125 22.21875 C-5.69934408 25.29679859 -5.69934408 25.29679859 -4.5625 28.25 C-1.9225 28.25 0.7175 28.25 3.4375 28.25 C4.0975 26.6 4.7575 24.95 5.4375 23.25 C8.0775 23.25 10.7175 23.25 13.4375 23.25 C13.93632898 27.4401634 13.63670015 28.96226646 11.1875 32.5 C7.44453705 36.24296295 4.85228657 37.54260457 -0.4375 37.625 C-5.22205286 37.5333959 -7.86275532 36.40831863 -11.5625 33.25 C-12.160625 32.816875 -12.75875 32.38375 -13.375 31.9375 C-16.49204087 27.50802088 -15.65572254 20.8517355 -15.375 15.6875 C-15.29185547 13.79837891 -15.29185547 13.79837891 -15.20703125 11.87109375 C-14.46327994 7.69256366 -13.30337055 5.47371821 -10.5625 2.25 C-7.047054 0.26077202 -4.00041668 -0.02225545 0 0 Z " fill="#DEDFE1" transform="translate(449.5625,177.75)"/>
<path d="M0 0 C16 0 16 0 23 3 C26.00826044 6.39642307 26.49042909 9.49040327 26.27734375 14.0078125 C25.82344649 17.2682013 24.9249441 19.32991625 23 22 C17.84066959 25.03490024 13.7983952 25.30517869 8 25 C8 28.63 8 32.26 8 36 C5.36 36 2.72 36 0 36 C0 24.12 0 12.24 0 0 Z M8 7 C8 10.3 8 13.6 8 17 C9.918125 17.0928125 9.918125 17.0928125 11.875 17.1875 C12.59429687 17.22230469 13.31359375 17.25710937 14.0546875 17.29296875 C14.69664062 17.19628906 15.33859375 17.09960938 16 17 C18.29637779 14.24104365 18.29637779 14.24104365 17.75 11.4375 C17.16191948 8.84999433 17.16191948 8.84999433 15 7 C11.41656024 6.83322718 11.41656024 6.83322718 8 7 Z " fill="#E2E3E5" transform="translate(303,178)"/>
<path d="M0 0 C15.51 0 31.02 0 47 0 C47 0.33 47 0.66 47 1 C41.72 1 36.44 1 31 1 C31 12.55 31 24.1 31 36 C30.67 36 30.34 36 30 36 C29.505 20.655 29.505 20.655 29 5 C28.67 5.66 28.34 6.32 28 7 C24.37 7 20.74 7 17 7 C17 16.57 17 26.14 17 36 C13.535 36.495 13.535 36.495 10 37 C9 36 9 36 8.88647461 33.22436523 C8.89171143 32.01466064 8.89694824 30.80495605 8.90234375 29.55859375 C8.90556641 28.25341797 8.90878906 26.94824219 8.91210938 25.60351562 C8.92046599 24.2148431 8.92893095 22.82617123 8.9375 21.4375 C8.94251334 20.04492344 8.94707653 18.65234519 8.95117188 17.25976562 C8.96300566 13.8398013 8.9794912 10.41992156 9 7 C6.03 7 3.06 7 0 7 C0 4.69 0 2.38 0 0 Z " fill="#DADBDD" transform="translate(344,178)"/>
<path d="M0 0 C2.64 0 5.28 0 8 0 C10.43421114 2.43421114 9.18549946 8.79562524 9.1875 12.0625 C9.19974609 13.08794922 9.21199219 14.11339844 9.22460938 15.16992188 C9.25185268 29.36368467 9.25185268 29.36368467 4.4375 35 C0.13124331 37.50545844 -3.12646398 37.68229504 -8 37 C-8.66 36.67 -9.32 36.34 -10 36 C-10.04254356 34.00045254 -10.04080783 31.99958364 -10 30 C-9 29 -9 29 -1 28 C-0.67 18.76 -0.34 9.52 0 0 Z " fill="#DFDFE2" transform="translate(290,178)"/>
<path d="M0 0 C-1.07401108 2.91517292 -1.77810176 4.77810176 -4 7 C-6.3828125 7.1953125 -6.3828125 7.1953125 -9.125 7.125 C-10.03507812 7.10695312 -10.94515625 7.08890625 -11.8828125 7.0703125 C-12.58148438 7.04710937 -13.28015625 7.02390625 -14 7 C-14 6.67 -14 6.34 -14 6 C-17.3 6 -20.6 6 -24 6 C-24 6.33 -24 6.66 -24 7 C-29.28 7 -34.56 7 -40 7 C-42 3 -42 3 -41.6875 0.8125 C-41 -1 -41 -1 -40 -2 C-37.38258429 -2.19733954 -34.78977874 -2.33289602 -32.16796875 -2.421875 C-30.98573479 -2.46371918 -30.98573479 -2.46371918 -29.77961731 -2.50640869 C-28.10764667 -2.56290808 -26.43557615 -2.61651304 -24.76342773 -2.66748047 C-22.20806319 -2.74934126 -19.65415094 -2.85292536 -17.09960938 -2.95703125 C-15.47660536 -3.00916421 -13.85355864 -3.05998789 -12.23046875 -3.109375 C-11.08495796 -3.16070587 -11.08495796 -3.16070587 -9.91630554 -3.21307373 C-5.636021 -3.31464541 -3.08624725 -3.10197012 0 0 Z " fill="#E8E9EA" transform="translate(206,219)"/>
<path d="M0 0 C17.49 0 34.98 0 53 0 C53.495 1.98 53.495 1.98 54 4 C52 6 52 6 49.83679199 6.24723816 C48.9412561 6.24581314 48.04572021 6.24438812 47.12304688 6.24291992 C46.10859497 6.24599655 45.09414307 6.24907318 44.0489502 6.25224304 C42.94998413 6.24505753 41.85101807 6.23787201 40.71875 6.23046875 C39.03211243 6.22978142 39.03211243 6.22978142 37.31140137 6.2290802 C34.93073473 6.22605512 32.55007012 6.21816124 30.16943359 6.20581055 C26.51522854 6.18757599 22.86127701 6.18530067 19.20703125 6.18554688 C16.8984353 6.18063101 14.58984107 6.17480239 12.28125 6.16796875 C10.6328009 6.16629951 10.6328009 6.16629951 8.9510498 6.16459656 C7.9365979 6.15821671 6.922146 6.15183685 5.87695312 6.14526367 C4.98141724 6.14145187 4.08588135 6.13764008 3.16320801 6.13371277 C1 6 1 6 -1 5 C-0.67 3.35 -0.34 1.7 0 0 Z " fill="#EBECEE" transform="translate(152,227)"/>
<path d="M0 0 C2.31 0 4.62 0 7 0 C7 11.88 7 23.76 7 36 C4.03 36.495 4.03 36.495 1 37 C0 36 0 36 -0.11352539 32.58178711 C-0.11336628 31.06363012 -0.10767226 29.54546771 -0.09765625 28.02734375 C-0.0962413 27.22970108 -0.09482635 26.43205841 -0.09336853 25.61024475 C-0.08775316 23.05262565 -0.07519812 20.49509282 -0.0625 17.9375 C-0.05748698 16.20768355 -0.05292373 14.47786574 -0.04882812 12.74804688 C-0.03777875 8.49866447 -0.02050386 4.24934688 0 0 Z " fill="#E3E4E5" transform="translate(239,178)"/>
<path d="M0 0 C0.68126953 -0.020625 1.36253906 -0.04125 2.06445312 -0.0625 C7.10436864 -0.10199003 7.10436864 -0.10199003 9.53515625 1.765625 C9.87417969 2.25546875 10.21320313 2.7453125 10.5625 3.25 C9.9025 4.57 9.2425 5.89 8.5625 7.25 C5.77057795 7.30380578 2.9796859 7.34357669 0.1875 7.375 C-0.6065625 7.39175781 -1.400625 7.40851563 -2.21875 7.42578125 C-4.29242015 7.44335473 -6.36633241 7.35335168 -8.4375 7.25 C-9.0975 6.59 -9.7575 5.93 -10.4375 5.25 C-10.1875 3.1875 -10.1875 3.1875 -9.4375 1.25 C-6.41891234 -0.25929383 -3.30849046 0.02489927 0 0 Z " fill="#E3E4E5" transform="translate(195.4375,206.75)"/>
<path d="M0 0 C5.28 0 10.56 0 16 0 C16 2.31 16 4.62 16 7 C10.72 7 5.44 7 0 7 C0 4.69 0 2.38 0 0 Z " fill="#D9DADC" transform="translate(329,196)"/>
<path d="M0 0 C11.88 0 23.76 0 36 0 C35.67 0.99 35.34 1.98 35 3 C31.7 3 28.4 3 25 3 C25 2.67 25 2.34 25 2 C16.75 1.67 8.5 1.34 0 1 C0 0.67 0 0.34 0 0 Z " fill="#72727D" transform="translate(167,223)"/>
<path d="M0 0 C2.3125 0.1875 2.3125 0.1875 4 1 C3.27167969 1.39832031 2.54335937 1.79664063 1.79296875 2.20703125 C-1.15231022 4.09777677 -3.28354964 6.15294453 -5.6875 8.6875 C-7.08687707 10.16213769 -8.51662786 11.60988505 -10 13 C-10.66 13 -11.32 13 -12 13 C-10.86555349 9.59666047 -9.37757142 8.50979288 -6.6171875 6.34375 C-4.73723426 4.84411877 -4.73723426 4.84411877 -2.375 2.125 C-1.59125 1.42375 -0.8075 0.7225 0 0 Z " fill="#ACAEB5" transform="translate(161,190)"/>
<path d="M0 0 C0.99 0.33 1.98 0.66 3 1 C0.36 3.64 -2.28 6.28 -5 9 C-5.99 8.67 -6.98 8.34 -8 8 C-5.36 5.36 -2.72 2.72 0 0 Z " fill="#B8B8BD" transform="translate(183,192)"/>
<path d="M0 0 C1.23556641 0.01740234 1.23556641 0.01740234 2.49609375 0.03515625 C3.32238281 0.04417969 4.14867187 0.05320313 5 0.0625 C5.63808594 0.07410156 6.27617187 0.08570313 6.93359375 0.09765625 C6.60359375 0.75765625 6.27359375 1.41765625 5.93359375 2.09765625 C4.57234375 1.97390625 4.57234375 1.97390625 3.18359375 1.84765625 C-0.16682033 1.78740826 -0.16682033 1.78740826 -2.44140625 4.09765625 C-2.97765625 4.75765625 -3.51390625 5.41765625 -4.06640625 6.09765625 C-2.99738005 0.14165312 -2.99738005 0.14165312 0 0 Z " fill="#8B8E95" transform="translate(416.06640625,177.90234375)"/>
<path d="M0 0 C2.64 0 5.28 0 8 0 C8.33 0.99 8.66 1.98 9 3 C8.34 3 7.68 3 7 3 C6.67 3.66 6.34 4.32 6 5 C6 3.68 6 2.36 6 1 C4.02 1.33 2.04 1.66 0 2 C0 1.34 0 0.68 0 0 Z " fill="#9B9DAC" transform="translate(485,178)"/>
<path d="" fill="#FFFFFF" transform="translate(0,0)"/>
</svg>
